# xmcd CD database file generated by freedbAccess_ocx
#
# Track frame offsets:
#       150
#       18048
#       36562
#       51645
#       65469
#       81645
#       97974
#       105316
#       124495
#       139951
#       159091
#       178019
#
# Disc length: 2569 seconds
#
# Revision: 0
# Processed by: cddbd v1.5PL3 Copyright (c) Steve Scherf et al.
# Submitted via: CDnGo 1.95
#
DISCID=a50a070c
DTITLE=Chico da Viola e Armando Lopes - CD Ao Vivo Vol I
DYEAR=2004
DGENRE=Country
TTITLE0=Minha Mulher
TTITLE1=Obras de um Poeta
TTITLE2=Reino Encantado
TTITLE3=Poeira da Estrada
TTITLE4=O Trein Querendo
TTITLE5=Comitiva Esperança
TTITLE6=Swing da Viola
TTITLE7=Serafim e Seus Filhos
TTITLE8=Porta do Mundo
TTITLE9=Tentei Te Esquecer
TTITLE10=Mil Razões para Chorar
TTITLE11=Minha Mulher
EXTD=
EXTT0=
EXTT1=
EXTT2=
EXTT3=
EXTT4=
EXTT5=
EXTT6=
EXTT7=
EXTT8=
EXTT9=
EXTT10=
EXTT11=
PLAYORDER=
